<svg width="110" height="24" viewBox="0 0 110 24" fill="none" xmlns="http://www.w3.org/2000/svg">
<g id="&#217;&#133;&#216;&#179;&#216;&#170;&#216;&#177; &#218;&#134;&#217;&#133;&#216;&#175;&#217;&#136;&#217;&#134;">
<g id="Vector">
<path d="M102.938 4.60938H108.031C108.823 4.60938 109.427 5.04688 109.844 5.92188C109.927 6.13021 109.969 6.33854 109.969 6.54688L109.953 15.2344C109.953 16.0573 109.474 16.6719 108.516 17.0781C108.307 17.1198 108.12 17.1406 107.953 17.1406H102.922C101.557 17.1406 100.464 16.5052 99.6406 15.2344C99.3073 14.651 99.1406 14.026 99.1406 13.3594L99.1562 8.39062C99.1562 7.02604 99.7917 5.93229 101.062 5.10938C101.646 4.77604 102.271 4.60938 102.938 4.60938ZM102.125 8.48438L102.109 13.2656C102.161 13.8698 102.464 14.1719 103.016 14.1719H106.984L107 7.57812H103.031C102.427 7.63021 102.125 7.93229 102.125 8.48438ZM99.2031 10.8594H101.828C102.016 10.8906 102.109 10.9844 102.109 11.1406V13.6719C102.109 15.0052 101.422 16.0573 100.047 16.8281C99.5469 17.0365 99.0781 17.1406 98.6406 17.1406H97.6406V14.1719H98.4531C98.9115 14.1719 99.1406 13.9427 99.1406 13.4844L99.1562 10.9219C99.1562 10.8802 99.1719 10.8594 99.2031 10.8594Z" fill="url(#paint0_linear_0_12199)"/>
<path d="M96.1719 13.6719C96.151 15.9844 94.9948 17.1406 92.7031 17.1406H87.3125C88.6875 17.1094 89.375 17.0156 89.375 16.8594L89.4375 14.2344C89.4479 14.1927 89.4688 14.1719 89.5 14.1719H92.5156C92.974 14.1719 93.2031 13.9427 93.2031 13.4844V6.42188C93.2135 5.21354 93.8177 4.60938 95.0156 4.60938H96.1094C96.151 4.60938 96.1719 4.63021 96.1719 4.67188V13.6719ZM92.1094 13.6719C92.0885 15.9844 90.9323 17.1406 88.6406 17.1406H84.1875C84.1042 17.1094 84.4792 17.0156 85.3125 16.8594L85.375 14.2344C85.3854 14.1927 85.4062 14.1719 85.4375 14.1719H88.4531C88.9115 14.1719 89.1406 13.9427 89.1406 13.4844V6.42188C89.151 5.21354 89.7552 4.60938 90.9531 4.60938H92.0469C92.0885 4.60938 92.1094 4.63021 92.1094 4.67188V13.6719ZM88.0469 13.6719C88.026 15.9844 86.8698 17.1406 84.5781 17.1406H83.375C83.3125 17.1094 83.2812 17.0156 83.2812 16.8594L83.3438 14.2344C83.3542 14.1927 83.375 14.1719 83.4062 14.1719H84.3906C84.849 14.1719 85.0781 13.9427 85.0781 13.4844V6.42188C85.0885 5.21354 85.6927 4.60938 86.8906 4.60938H87.9844C88.026 4.60938 88.0469 4.63021 88.0469 4.67188V13.6719ZM96.1094 10.8594C96.1406 10.8594 96.1615 10.8802 96.1719 10.9219V13.4844C96.1719 13.9427 96.401 14.1719 96.8594 14.1719H97.6719V17.1406H96.6719C96.2344 17.1406 95.7656 17.0365 95.2656 16.8281C93.8906 16.0573 93.2031 15.0052 93.2031 13.6719V11.1406C93.2031 10.9844 93.2969 10.8906 93.4844 10.8594H96.1094Z" fill="url(#paint1_linear_0_12199)"/>
<path d="M81.875 10.8594C81.9062 10.8594 81.9271 10.8802 81.9375 10.9219V13.4844C81.9375 13.9427 82.1667 14.1719 82.625 14.1719H83.4375V17.1406H82.4375C82 17.1406 81.5312 17.0365 81.0312 16.8281C79.6562 16.0573 78.9688 15.0052 78.9688 13.6719V11.1406C78.9688 10.9844 79.0625 10.8906 79.25 10.8594H81.875ZM81.9375 13.6719C81.9167 15.9844 80.7604 17.1406 78.4688 17.1406H75.4062C75.3229 17.1094 75.2812 17.0156 75.2812 16.8594V14.2344C75.2917 14.1927 75.3125 14.1719 75.3438 14.1719H78.2812C78.7396 14.1719 78.9688 13.9427 78.9688 13.4844V6.42188C78.9792 5.21354 79.5833 4.60938 80.7812 4.60938H81.875C81.9167 4.60938 81.9375 4.63021 81.9375 4.67188V13.6719ZM79.9688 0.375H80C80.3438 0.375 80.6615 0.479167 80.9531 0.6875C81.0781 0.78125 81.1823 0.885417 81.2656 1C81.4219 1.22917 81.5 1.46875 81.5 1.71875V1.75C81.5 2.02083 81.4062 2.27604 81.2188 2.51562C81.125 2.63021 81.0312 2.71875 80.9375 2.78125C80.6458 2.98958 80.3333 3.09375 80 3.09375H79.9844C79.6198 3.09375 79.2865 2.97917 78.9844 2.75C78.8906 2.6875 78.8073 2.59896 78.7344 2.48438C78.5573 2.25521 78.4688 2.00521 78.4688 1.73438C78.4688 1.43229 78.5781 1.15625 78.7969 0.90625C78.901 0.791667 78.9688 0.729167 79 0.71875C79.1042 0.635417 79.1823 0.583333 79.2344 0.5625C79.4635 0.4375 79.7083 0.375 79.9688 0.375ZM76.7812 0.375H76.8125C77.1562 0.375 77.4792 0.479167 77.7812 0.6875C77.8958 0.78125 77.9948 0.885417 78.0781 1C78.2448 1.22917 78.3281 1.46875 78.3281 1.71875V1.75C78.3281 2.02083 78.2344 2.27604 78.0469 2.51562C77.9531 2.63021 77.8594 2.71875 77.7656 2.78125C77.474 2.98958 77.1562 3.09375 76.8125 3.09375H76.7969C76.4427 3.09375 76.1146 2.97917 75.8125 2.75C75.7188 2.6875 75.6302 2.59896 75.5469 2.48438C75.3802 2.25521 75.2969 2.00521 75.2969 1.73438C75.2969 1.43229 75.401 1.15625 75.6094 0.90625C75.7135 0.791667 75.7865 0.729167 75.8281 0.71875C75.9219 0.635417 75.9948 0.583333 76.0469 0.5625C76.2865 0.4375 76.5312 0.375 76.7812 0.375Z" fill="url(#paint2_linear_0_12199)"/>
<path d="M71.0312 8.20312H73.6562C73.8438 8.23438 73.9375 8.32812 73.9375 8.48438V15.8594C73.9375 17.901 73.0833 19.4531 71.375 20.5156C70.3438 21.1406 69.1771 21.4531 67.875 21.4531C66.125 21.4635 65.25 20.5885 65.25 18.8281V18.5469C65.2604 18.5052 65.2812 18.4844 65.3125 18.4844H67.9688C69.6042 18.4844 70.5729 17.7969 70.875 16.4219C70.9375 16.1302 70.9688 15.8177 70.9688 15.4844V8.26562C70.9792 8.22396 71 8.20312 71.0312 8.20312ZM70.9688 12.9844V6.42188C70.9792 5.21354 71.5833 4.60938 72.7812 4.60938H73.875C73.9167 4.60938 73.9375 4.63021 73.9375 4.67188V13.0625L70.9688 12.9844ZM73.875 10.8594C73.9062 10.8594 73.9271 10.8802 73.9375 10.9219V13.4844C73.9375 13.9427 74.1667 14.1719 74.625 14.1719H75.4375V17.1406H74.4375C74 17.1406 73.5312 17.0365 73.0312 16.8281C71.6562 16.0573 70.9688 15.0052 70.9688 13.6719V11.1406C70.9688 10.9844 71.0625 10.8906 71.25 10.8594H73.875Z" fill="url(#paint3_linear_0_12199)"/>
</g>
<g id="Vector_2">
<path d="M58.0156 21.2031C57.7552 21.2031 57.5104 21.1406 57.2812 21.0156C57.2292 20.9948 57.151 20.9427 57.0469 20.8594C57.0156 20.849 56.9479 20.7865 56.8438 20.6719C56.625 20.4219 56.5156 20.1458 56.5156 19.8438C56.5156 19.5729 56.6042 19.3229 56.7812 19.0938C56.8542 18.9792 56.9375 18.8906 57.0312 18.8281C57.3333 18.599 57.6667 18.4844 58.0312 18.4844H58.0469C58.3802 18.4844 58.6927 18.5885 58.9844 18.7969C59.0781 18.8594 59.1719 18.9479 59.2656 19.0625C59.4531 19.3021 59.5469 19.5573 59.5469 19.8281V19.8594C59.5469 20.1094 59.4688 20.349 59.3125 20.5781C59.2292 20.6823 59.125 20.7865 59 20.8906C58.7083 21.099 58.3906 21.2031 58.0469 21.2031H58.0156ZM54.8281 21.2031C54.5781 21.2031 54.3333 21.1406 54.0938 21.0156C54.0417 20.9948 53.9688 20.9427 53.875 20.8594C53.8333 20.849 53.7604 20.7865 53.6562 20.6719C53.4479 20.4219 53.3438 20.1458 53.3438 19.8438C53.3438 19.5729 53.4271 19.3229 53.5938 19.0938C53.6771 18.9792 53.7656 18.8906 53.8594 18.8281C54.1615 18.599 54.4896 18.4844 54.8438 18.4844H54.8594C55.2031 18.4844 55.5208 18.5885 55.8125 18.7969C55.9062 18.8594 56 18.9479 56.0938 19.0625C56.2812 19.3021 56.375 19.5573 56.375 19.8281V19.8594C56.375 20.1094 56.2917 20.349 56.125 20.5781C56.0417 20.6823 55.9427 20.7865 55.8281 20.8906C55.526 21.099 55.2031 21.2031 54.8594 21.2031H54.8281ZM58.0156 21.2031C57.7552 21.2031 57.5104 21.1406 57.2812 21.0156C57.2292 20.9948 57.151 20.9427 57.0469 20.8594C57.0156 20.849 56.9479 20.7865 56.8438 20.6719C56.625 20.4219 56.5156 20.1458 56.5156 19.8438C56.5156 19.5729 56.6042 19.3229 56.7812 19.0938C56.8542 18.9792 56.9375 18.8906 57.0312 18.8281C57.3333 18.599 57.6667 18.4844 58.0312 18.4844H58.0469C58.3802 18.4844 58.6927 18.5885 58.9844 18.7969C59.0781 18.8594 59.1719 18.9479 59.2656 19.0625C59.4531 19.3021 59.5469 19.5573 59.5469 19.8281V19.8594C59.5469 20.1094 59.4688 20.349 59.3125 20.5781C59.2292 20.6823 59.125 20.7865 59 20.8906C58.7083 21.099 58.3906 21.2031 58.0469 21.2031H58.0156ZM54.8281 21.2031C54.5781 21.2031 54.3333 21.1406 54.0938 21.0156C54.0417 20.9948 53.9688 20.9427 53.875 20.8594C53.8333 20.849 53.7604 20.7865 53.6562 20.6719C53.4479 20.4219 53.3438 20.1458 53.3438 19.8438C53.3438 19.5729 53.4271 19.3229 53.5938 19.0938C53.6771 18.9792 53.7656 18.8906 53.8594 18.8281C54.1615 18.599 54.4896 18.4844 54.8438 18.4844H54.8594C55.2031 18.4844 55.5208 18.5885 55.8125 18.7969C55.9062 18.8594 56 18.9479 56.0938 19.0625C56.2812 19.3021 56.375 19.5573 56.375 19.8281V19.8594C56.375 20.1094 56.2917 20.349 56.125 20.5781C56.0417 20.6823 55.9427 20.7865 55.8281 20.8906C55.526 21.099 55.2031 21.2031 54.8594 21.2031H54.8281ZM58.0156 21.2031C57.7552 21.2031 57.5104 21.1406 57.2812 21.0156C57.2292 20.9948 57.151 20.9427 57.0469 20.8594C57.0156 20.849 56.9479 20.7865 56.8438 20.6719C56.625 20.4219 56.5156 20.1458 56.5156 19.8438C56.5156 19.5729 56.6042 19.3229 56.7812 19.0938C56.8542 18.9792 56.9375 18.8906 57.0312 18.8281C57.3333 18.599 57.6667 18.4844 58.0312 18.4844H58.0469C58.3802 18.4844 58.6927 18.5885 58.9844 18.7969C59.0781 18.8594 59.1719 18.9479 59.2656 19.0625C59.4531 19.3021 59.5469 19.5573 59.5469 19.8281V19.8594C59.5469 20.1094 59.4688 20.349 59.3125 20.5781C59.2292 20.6823 59.125 20.7865 59 20.8906C58.7083 21.099 58.3906 21.2031 58.0469 21.2031H58.0156ZM54.8281 21.2031C54.5781 21.2031 54.3333 21.1406 54.0938 21.0156C54.0417 20.9948 53.9688 20.9427 53.875 20.8594C53.8333 20.849 53.7604 20.7865 53.6562 20.6719C53.4479 20.4219 53.3438 20.1458 53.3438 19.8438C53.3438 19.5729 53.4271 19.3229 53.5938 19.0938C53.6771 18.9792 53.7656 18.8906 53.8594 18.8281C54.1615 18.599 54.4896 18.4844 54.8438 18.4844H54.8594C55.2031 18.4844 55.5208 18.5885 55.8125 18.7969C55.9062 18.8594 56 18.9479 56.0938 19.0625C56.2812 19.3021 56.375 19.5573 56.375 19.8281V19.8594C56.375 20.1094 56.2917 20.349 56.125 20.5781C56.0417 20.6823 55.9427 20.7865 55.8281 20.8906C55.526 21.099 55.2031 21.2031 54.8594 21.2031H54.8281ZM56.4219 23.625C56.1615 23.625 55.9167 23.5625 55.6875 23.4375C55.6354 23.4167 55.5573 23.3646 55.4531 23.2812C55.4219 23.2708 55.3542 23.2083 55.25 23.0938C55.0312 22.8438 54.9219 22.5677 54.9219 22.2656C54.9219 21.9948 55.0104 21.7448 55.1875 21.5156C55.2604 21.401 55.3438 21.3125 55.4375 21.25C55.7396 21.0208 56.0729 20.9062 56.4375 20.9062H56.4531C56.7865 20.9062 57.099 21.0104 57.3906 21.2188C57.4844 21.2812 57.5781 21.3698 57.6719 21.4844C57.8594 21.724 57.9531 21.9792 57.9531 22.25V22.2812C57.9531 22.5312 57.875 22.7708 57.7188 23C57.6354 23.1042 57.5312 23.2083 57.4062 23.3125C57.1146 23.5208 56.7969 23.625 56.4531 23.625H56.4219ZM55.3906 4.60938H62.6094C62.7969 4.64062 62.8906 4.73438 62.8906 4.89062V13.6719C62.8906 15.0052 62.2031 16.0573 60.8281 16.8281C60.3281 17.0365 59.8594 17.1406 59.4219 17.1406H51.5156C51.4323 17.1094 51.3906 17.0156 51.3906 16.8594V14.2344C51.401 14.1927 51.4219 14.1719 51.4531 14.1719H59.2344C59.6927 14.1719 59.9219 13.9427 59.9219 13.4844V7.57812H55.6094V9.45312C55.6094 10.9531 54.8073 11.7031 53.2031 11.7031H52.7031C52.6615 11.7031 52.6406 11.6823 52.6406 11.6406V7.20312C52.6406 5.47396 53.5573 4.60938 55.3906 4.60938Z" fill="#505050"/>
<path d="M42.9688 4.60938H48.0625C48.8542 4.60938 49.4583 5.04688 49.875 5.92188C49.9583 6.13021 50 6.33854 50 6.54688L49.9844 15.2344C49.9844 16.0573 49.5052 16.6719 48.5469 17.0781C48.3385 17.1198 48.151 17.1406 47.9844 17.1406H42.9531C41.5885 17.1406 40.4948 16.5052 39.6719 15.2344C39.3385 14.651 39.1719 14.026 39.1719 13.3594L39.1875 8.39062C39.1875 7.02604 39.8229 5.93229 41.0938 5.10938C41.6771 4.77604 42.3021 4.60938 42.9688 4.60938ZM42.1562 8.48438L42.1406 13.2656C42.1927 13.8698 42.4948 14.1719 43.0469 14.1719H47.0156L47.0312 7.57812H43.0625C42.4583 7.63021 42.1562 7.93229 42.1562 8.48438ZM39.2344 10.8594H41.8594C42.0469 10.8906 42.1406 10.9844 42.1406 11.1406V13.6719C42.1406 15.0052 41.4531 16.0573 40.0781 16.8281C39.5781 17.0365 39.1094 17.1406 38.6719 17.1406H37.6719V14.1719H38.4844C38.9427 14.1719 39.1719 13.9427 39.1719 13.4844L39.1875 10.9219C39.1875 10.8802 39.2031 10.8594 39.2344 10.8594ZM49.9219 10.8594C49.9531 10.8594 49.974 10.8802 49.9844 10.9219V13.4844C49.9844 13.9427 50.2135 14.1719 50.6719 14.1719H51.4844V17.1406H50.4844C50.0469 17.1406 49.5781 17.0365 49.0781 16.8281C47.7031 16.0573 47.0156 15.0052 47.0156 13.6719L47.0312 11.1406C47.0208 10.9844 47.1094 10.8906 47.2969 10.8594H49.9219Z" fill="#505050"/>
<path d="M30.6406 4.60949H35.7656C36.0573 4.69283 36.2031 4.83866 36.2031 5.04699V13.1407C36.2031 14.4637 35.5781 15.5782 34.3281 16.4845C33.6198 16.922 32.9115 17.1407 32.2031 17.1407H28.4844C28.1719 17.0678 28.0156 16.9116 28.0156 16.672V14.2345C28.026 14.1928 28.0469 14.172 28.0781 14.172H31.9219C32.5469 14.172 32.9635 13.9116 33.1719 13.3907C33.2135 13.2241 33.2344 13.047 33.2344 12.8595V7.57824H28.0781C28.0365 7.57824 28.0156 7.55741 28.0156 7.51574V7.23449C28.0052 5.46366 28.8802 4.58866 30.6406 4.60949ZM36.1406 10.8595C36.1719 10.8595 36.1927 10.8803 36.2031 10.922V13.4845C36.2031 13.9428 36.4323 14.172 36.8906 14.172H37.7031V17.1407H36.7031C36.2656 17.1407 35.7969 17.0366 35.2969 16.8282C33.9219 16.0574 33.2344 15.0053 33.2344 13.672V11.1407C33.2344 10.9845 33.3281 10.8907 33.5156 10.8595H36.1406Z" fill="#505050"/>
<path d="M19.3906 4.60938H24.4844C25.276 4.60938 25.8802 5.04688 26.2969 5.92188C26.3802 6.13021 26.4219 6.33854 26.4219 6.54688L26.4062 15.2344C26.4062 16.0573 25.9271 16.6719 24.9688 17.0781C24.7604 17.1198 24.5729 17.1406 24.4062 17.1406H19.375C18.0104 17.1406 16.9167 16.5052 16.0938 15.2344C15.7604 14.651 15.5938 14.026 15.5938 13.3594L15.6094 8.39062C15.6094 7.02604 16.2448 5.93229 17.5156 5.10938C18.099 4.77604 18.724 4.60938 19.3906 4.60938ZM18.5781 8.48438L18.5625 13.2656C18.6146 13.8698 18.9167 14.1719 19.4688 14.1719H23.4375L23.4531 7.57812H19.4844C18.8802 7.63021 18.5781 7.93229 18.5781 8.48438ZM23.4688 15.1719H26.0938C26.2812 15.2031 26.3854 15.224 26.4062 15.2344L26.375 17.9844C26.375 19.3177 25.6875 20.3698 24.3125 21.1406C23.8125 21.349 23.3438 21.4531 22.9062 21.4531H20.7812C19.2188 21.474 18.4479 20.9062 18.4688 19.75V18.4844H22.7188C23.1771 18.4844 23.4062 18.2552 23.4062 17.7969L23.4219 15.2344C23.4219 15.1927 23.4375 15.1719 23.4688 15.1719Z" fill="#505050"/>
<path d="M11.0312 6.42188C11.0417 5.21354 11.6458 4.60938 12.8438 4.60938H13.9375C13.9792 4.60938 14 4.63021 14 4.67188V16.0781C14 17.6094 13.3542 18.9635 12.0625 20.1406C11 21.0156 9.85417 21.4531 8.625 21.4531H5.40625C3.63542 21.4531 2.125 20.6094 0.875 18.9219C0.3125 17.9323 0.03125 16.9844 0.03125 16.0781V6.4375C0.0416667 5.22917 0.645833 4.625 1.84375 4.625H2.9375C2.97917 4.625 3 4.64583 3 4.6875V15.7031C3 17.1094 3.64583 18.0052 4.9375 18.3906C5.08333 18.4531 5.34375 18.4844 5.71875 18.4844H8.3125C9.67708 18.4844 10.5625 17.8177 10.9688 16.4844C11.0104 16.2552 11.0312 15.9948 11.0312 15.7031V6.42188ZM7.3125 0.375H7.34375C7.6875 0.375 8.01042 0.479167 8.3125 0.6875C8.42708 0.78125 8.52604 0.885417 8.60938 1C8.77604 1.22917 8.85938 1.46875 8.85938 1.71875V1.75C8.85938 2.02083 8.76562 2.27604 8.57812 2.51562C8.48438 2.63021 8.39062 2.71875 8.29688 2.78125C8.00521 2.98958 7.6875 3.09375 7.34375 3.09375H7.32812C6.97396 3.09375 6.64583 2.97917 6.34375 2.75C6.25 2.6875 6.16146 2.59896 6.07812 2.48438C5.91146 2.25521 5.82812 2.00521 5.82812 1.73438C5.82812 1.43229 5.93229 1.15625 6.14062 0.90625C6.24479 0.791667 6.31771 0.729167 6.35938 0.71875C6.45312 0.635417 6.52604 0.583333 6.57812 0.5625C6.81771 0.4375 7.0625 0.375 7.3125 0.375ZM7.3125 0.375H7.34375C7.6875 0.375 8.01042 0.479167 8.3125 0.6875C8.42708 0.78125 8.52604 0.885417 8.60938 1C8.77604 1.22917 8.85938 1.46875 8.85938 1.71875V1.75C8.85938 2.02083 8.76562 2.27604 8.57812 2.51562C8.48438 2.63021 8.39062 2.71875 8.29688 2.78125C8.00521 2.98958 7.6875 3.09375 7.34375 3.09375H7.32812C6.97396 3.09375 6.64583 2.97917 6.34375 2.75C6.25 2.6875 6.16146 2.59896 6.07812 2.48438C5.91146 2.25521 5.82812 2.00521 5.82812 1.73438C5.82812 1.43229 5.93229 1.15625 6.14062 0.90625C6.24479 0.791667 6.31771 0.729167 6.35938 0.71875C6.45312 0.635417 6.52604 0.583333 6.57812 0.5625C6.81771 0.4375 7.0625 0.375 7.3125 0.375ZM7.3125 0.375H7.34375C7.6875 0.375 8.01042 0.479167 8.3125 0.6875C8.42708 0.78125 8.52604 0.885417 8.60938 1C8.77604 1.22917 8.85938 1.46875 8.85938 1.71875V1.75C8.85938 2.02083 8.76562 2.27604 8.57812 2.51562C8.48438 2.63021 8.39062 2.71875 8.29688 2.78125C8.00521 2.98958 7.6875 3.09375 7.34375 3.09375H7.32812C6.97396 3.09375 6.64583 2.97917 6.34375 2.75C6.25 2.6875 6.16146 2.59896 6.07812 2.48438C5.91146 2.25521 5.82812 2.00521 5.82812 1.73438C5.82812 1.43229 5.93229 1.15625 6.14062 0.90625C6.24479 0.791667 6.31771 0.729167 6.35938 0.71875C6.45312 0.635417 6.52604 0.583333 6.57812 0.5625C6.81771 0.4375 7.0625 0.375 7.3125 0.375Z" fill="#505050"/>
</g>
</g>
<defs>
<linearGradient id="paint0_linear_0_12199" x1="65.25" y1="0.375" x2="111.411" y2="17.5841" gradientUnits="userSpaceOnUse">
<stop stop-color="#59B6F3"/>
<stop offset="1" stop-color="#0487E2"/>
</linearGradient>
<linearGradient id="paint1_linear_0_12199" x1="65.25" y1="0.375" x2="111.411" y2="17.5841" gradientUnits="userSpaceOnUse">
<stop stop-color="#59B6F3"/>
<stop offset="1" stop-color="#0487E2"/>
</linearGradient>
<linearGradient id="paint2_linear_0_12199" x1="65.25" y1="0.375" x2="111.411" y2="17.5841" gradientUnits="userSpaceOnUse">
<stop stop-color="#59B6F3"/>
<stop offset="1" stop-color="#0487E2"/>
</linearGradient>
<linearGradient id="paint3_linear_0_12199" x1="65.25" y1="0.375" x2="111.411" y2="17.5841" gradientUnits="userSpaceOnUse">
<stop stop-color="#59B6F3"/>
<stop offset="1" stop-color="#0487E2"/>
</linearGradient>
</defs>
</svg>
